<svg xmlns="http://www.w3.org/2000/svg" viewBox="0 0 960 480" width="100%" role="img" aria-label="CRC-64/NVME throughput in GB/s against input size, one line per machine" font-family='ui-sans-serif, system-ui, -apple-system, "Segoe UI", Roboto, sans-serif'>
<rect width="960" height="480" fill="#fcfcfb"/>
<text x="16" y="32.0" font-size="16" font-weight="600" fill="#0b0b0b">CRC-64/NVME throughput by input size, single core</text>
<text x="16" y="53.0" font-size="13" fill="#52514e">benchstat median, this package&#39;s selected kernel on each machine</text>
<line x1="56.0" y1="436.0" x2="681.3" y2="436.0" stroke="#e6e5e1" stroke-width="1"/>
<text x="48.0" y="440.0" font-size="12" text-anchor="end" fill="#52514e">0</text>
<line x1="56.0" y1="378.8" x2="681.3" y2="378.8" stroke="#e6e5e1" stroke-width="1"/>
<text x="48.0" y="382.8" font-size="12" text-anchor="end" fill="#52514e">20</text>
<line x1="56.0" y1="321.7" x2="681.3" y2="321.7" stroke="#e6e5e1" stroke-width="1"/>
<text x="48.0" y="325.7" font-size="12" text-anchor="end" fill="#52514e">40</text>
<line x1="56.0" y1="264.5" x2="681.3" y2="264.5" stroke="#e6e5e1" stroke-width="1"/>
<text x="48.0" y="268.5" font-size="12" text-anchor="end" fill="#52514e">60</text>
<line x1="56.0" y1="207.3" x2="681.3" y2="207.3" stroke="#e6e5e1" stroke-width="1"/>
<text x="48.0" y="211.3" font-size="12" text-anchor="end" fill="#52514e">80</text>
<line x1="56.0" y1="150.2" x2="681.3" y2="150.2" stroke="#e6e5e1" stroke-width="1"/>
<text x="48.0" y="154.2" font-size="12" text-anchor="end" fill="#52514e">100</text>
<line x1="56.0" y1="93.0" x2="681.3" y2="93.0" stroke="#e6e5e1" stroke-width="1"/>
<text x="48.0" y="97.0" font-size="12" text-anchor="end" fill="#52514e">120</text>
<text x="48.0" y="79.0" font-size="12" text-anchor="end" fill="#52514e">GB/s</text>
<line x1="56.0" y1="93.0" x2="56.0" y2="436.0" stroke="#e6e5e1" stroke-width="1"/>
<line x1="56.0" y1="436.0" x2="56.0" y2="440.0" stroke="#e6e5e1" stroke-width="1"/>
<text x="56.0" y="456.0" font-size="12" text-anchor="middle" fill="#52514e">64 B</text>
<line x1="118.5" y1="436.0" x2="118.5" y2="440.0" stroke="#e6e5e1" stroke-width="1"/>
<text x="118.5" y="456.0" font-size="12" text-anchor="middle" fill="#52514e">256 B</text>
<line x1="181.1" y1="436.0" x2="181.1" y2="440.0" stroke="#e6e5e1" stroke-width="1"/>
<text x="181.1" y="456.0" font-size="12" text-anchor="middle" fill="#52514e">1 KiB</text>
<line x1="243.6" y1="436.0" x2="243.6" y2="440.0" stroke="#e6e5e1" stroke-width="1"/>
<text x="243.6" y="456.0" font-size="12" text-anchor="middle" fill="#52514e">4 KiB</text>
<line x1="368.6" y1="436.0" x2="368.6" y2="440.0" stroke="#e6e5e1" stroke-width="1"/>
<text x="368.6" y="456.0" font-size="12" text-anchor="middle" fill="#52514e">64 KiB</text>
<line x1="493.7" y1="436.0" x2="493.7" y2="440.0" stroke="#e6e5e1" stroke-width="1"/>
<text x="493.7" y="456.0" font-size="12" text-anchor="middle" fill="#52514e">1 MiB</text>
<line x1="681.3" y1="436.0" x2="681.3" y2="440.0" stroke="#e6e5e1" stroke-width="1"/>
<text x="681.3" y="456.0" font-size="12" text-anchor="middle" fill="#52514e">64 MiB</text>
<polyline points="56.0,405.8 118.5,334.9 181.1,231.4 243.6,162.8 368.6,117.7 493.7,128.6 681.3,243.0" fill="none" stroke="#2a78d6" stroke-width="2" stroke-linejoin="round" stroke-linecap="round"/>
<polyline points="56.0,420.4 118.5,388.5 181.1,333.9 243.6,292.2 368.6,273.5 493.7,278.6 681.3,368.6" fill="none" stroke="#eb6834" stroke-width="2" stroke-linejoin="round" stroke-linecap="round"/>
<polyline points="56.0,415.8 118.5,362.7 181.1,260.2 243.6,175.4 368.6,151.6 493.7,147.6 681.3,369.5" fill="none" stroke="#1baf7a" stroke-width="2" stroke-linejoin="round" stroke-linecap="round"/>
<polyline points="56.0,420.7 118.5,389.3 181.1,334.3 243.6,300.2 368.6,282.9 493.7,291.5 681.3,385.5" fill="none" stroke="#eda100" stroke-width="2" stroke-linejoin="round" stroke-linecap="round"/>
<polyline points="56.0,420.3 118.5,385.8 181.1,361.0 243.6,325.0 368.6,309.6 493.7,312.6 681.3,357.7" fill="none" stroke="#e87ba4" stroke-width="2" stroke-linejoin="round" stroke-linecap="round"/>
<polyline points="56.0,424.3 118.5,394.4 181.1,364.1 243.6,340.8 368.6,331.0 493.7,340.6 681.3,364.1" fill="none" stroke="#008300" stroke-width="2" stroke-linejoin="round" stroke-linecap="round"/>
<polyline points="56.0,430.3 118.5,418.3 181.1,400.1 243.6,389.2 368.6,384.6 493.7,384.1 681.3,387.2" fill="none" stroke="#4a3aa7" stroke-width="2" stroke-linejoin="round" stroke-linecap="round"/>
<circle cx="56.0" cy="405.8" r="4" fill="#2a78d6" stroke="#fcfcfb" stroke-width="2"/>
<circle cx="118.5" cy="334.9" r="4" fill="#2a78d6" stroke="#fcfcfb" stroke-width="2"/>
<circle cx="181.1" cy="231.4" r="4" fill="#2a78d6" stroke="#fcfcfb" stroke-width="2"/>
<circle cx="243.6" cy="162.8" r="4" fill="#2a78d6" stroke="#fcfcfb" stroke-width="2"/>
<circle cx="368.6" cy="117.7" r="4" fill="#2a78d6" stroke="#fcfcfb" stroke-width="2"/>
<circle cx="493.7" cy="128.6" r="4" fill="#2a78d6" stroke="#fcfcfb" stroke-width="2"/>
<circle cx="681.3" cy="243.0" r="4" fill="#2a78d6" stroke="#fcfcfb" stroke-width="2"/>
<circle cx="56.0" cy="420.4" r="4" fill="#eb6834" stroke="#fcfcfb" stroke-width="2"/>
<circle cx="118.5" cy="388.5" r="4" fill="#eb6834" stroke="#fcfcfb" stroke-width="2"/>
<circle cx="181.1" cy="333.9" r="4" fill="#eb6834" stroke="#fcfcfb" stroke-width="2"/>
<circle cx="243.6" cy="292.2" r="4" fill="#eb6834" stroke="#fcfcfb" stroke-width="2"/>
<circle cx="368.6" cy="273.5" r="4" fill="#eb6834" stroke="#fcfcfb" stroke-width="2"/>
<circle cx="493.7" cy="278.6" r="4" fill="#eb6834" stroke="#fcfcfb" stroke-width="2"/>
<circle cx="681.3" cy="368.6" r="4" fill="#eb6834" stroke="#fcfcfb" stroke-width="2"/>
<circle cx="56.0" cy="415.8" r="4" fill="#1baf7a" stroke="#fcfcfb" stroke-width="2"/>
<circle cx="118.5" cy="362.7" r="4" fill="#1baf7a" stroke="#fcfcfb" stroke-width="2"/>
<circle cx="181.1" cy="260.2" r="4" fill="#1baf7a" stroke="#fcfcfb" stroke-width="2"/>
<circle cx="243.6" cy="175.4" r="4" fill="#1baf7a" stroke="#fcfcfb" stroke-width="2"/>
<circle cx="368.6" cy="151.6" r="4" fill="#1baf7a" stroke="#fcfcfb" stroke-width="2"/>
<circle cx="493.7" cy="147.6" r="4" fill="#1baf7a" stroke="#fcfcfb" stroke-width="2"/>
<circle cx="681.3" cy="369.5" r="4" fill="#1baf7a" stroke="#fcfcfb" stroke-width="2"/>
<circle cx="56.0" cy="420.7" r="4" fill="#eda100" stroke="#fcfcfb" stroke-width="2"/>
<circle cx="118.5" cy="389.3" r="4" fill="#eda100" stroke="#fcfcfb" stroke-width="2"/>
<circle cx="181.1" cy="334.3" r="4" fill="#eda100" stroke="#fcfcfb" stroke-width="2"/>
<circle cx="243.6" cy="300.2" r="4" fill="#eda100" stroke="#fcfcfb" stroke-width="2"/>
<circle cx="368.6" cy="282.9" r="4" fill="#eda100" stroke="#fcfcfb" stroke-width="2"/>
<circle cx="493.7" cy="291.5" r="4" fill="#eda100" stroke="#fcfcfb" stroke-width="2"/>
<circle cx="681.3" cy="385.5" r="4" fill="#eda100" stroke="#fcfcfb" stroke-width="2"/>
<circle cx="56.0" cy="420.3" r="4" fill="#e87ba4" stroke="#fcfcfb" stroke-width="2"/>
<circle cx="118.5" cy="385.8" r="4" fill="#e87ba4" stroke="#fcfcfb" stroke-width="2"/>
<circle cx="181.1" cy="361.0" r="4" fill="#e87ba4" stroke="#fcfcfb" stroke-width="2"/>
<circle cx="243.6" cy="325.0" r="4" fill="#e87ba4" stroke="#fcfcfb" stroke-width="2"/>
<circle cx="368.6" cy="309.6" r="4" fill="#e87ba4" stroke="#fcfcfb" stroke-width="2"/>
<circle cx="493.7" cy="312.6" r="4" fill="#e87ba4" stroke="#fcfcfb" stroke-width="2"/>
<circle cx="681.3" cy="357.7" r="4" fill="#e87ba4" stroke="#fcfcfb" stroke-width="2"/>
<circle cx="56.0" cy="424.3" r="4" fill="#008300" stroke="#fcfcfb" stroke-width="2"/>
<circle cx="118.5" cy="394.4" r="4" fill="#008300" stroke="#fcfcfb" stroke-width="2"/>
<circle cx="181.1" cy="364.1" r="4" fill="#008300" stroke="#fcfcfb" stroke-width="2"/>
<circle cx="243.6" cy="340.8" r="4" fill="#008300" stroke="#fcfcfb" stroke-width="2"/>
<circle cx="368.6" cy="331.0" r="4" fill="#008300" stroke="#fcfcfb" stroke-width="2"/>
<circle cx="493.7" cy="340.6" r="4" fill="#008300" stroke="#fcfcfb" stroke-width="2"/>
<circle cx="681.3" cy="364.1" r="4" fill="#008300" stroke="#fcfcfb" stroke-width="2"/>
<circle cx="56.0" cy="430.3" r="4" fill="#4a3aa7" stroke="#fcfcfb" stroke-width="2"/>
<circle cx="118.5" cy="418.3" r="4" fill="#4a3aa7" stroke="#fcfcfb" stroke-width="2"/>
<circle cx="181.1" cy="400.1" r="4" fill="#4a3aa7" stroke="#fcfcfb" stroke-width="2"/>
<circle cx="243.6" cy="389.2" r="4" fill="#4a3aa7" stroke="#fcfcfb" stroke-width="2"/>
<circle cx="368.6" cy="384.6" r="4" fill="#4a3aa7" stroke="#fcfcfb" stroke-width="2"/>
<circle cx="493.7" cy="384.1" r="4" fill="#4a3aa7" stroke="#fcfcfb" stroke-width="2"/>
<circle cx="681.3" cy="387.2" r="4" fill="#4a3aa7" stroke="#fcfcfb" stroke-width="2"/>
<path d="M689.3 243.0L700.3 243.0L711.3 243.0" fill="none" stroke="#2a78d6" stroke-width="1"/>
<text x="715.3" y="247.0" font-size="12" fill="#0b0b0b">Apple M4</text>
<path d="M689.3 357.7L700.3 332.1L711.3 332.1" fill="none" stroke="#e87ba4" stroke-width="1"/>
<text x="715.3" y="336.1" font-size="12" fill="#0b0b0b">AWS Graviton4</text>
<path d="M689.3 364.1L700.3 348.1L711.3 348.1" fill="none" stroke="#008300" stroke-width="1"/>
<text x="715.3" y="352.1" font-size="12" fill="#0b0b0b">AWS Graviton3</text>
<path d="M689.3 368.6L700.3 364.1L711.3 364.1" fill="none" stroke="#eb6834" stroke-width="1"/>
<text x="715.3" y="368.1" font-size="12" fill="#0b0b0b">AMD EPYC 9654P</text>
<path d="M689.3 369.5L700.3 380.1L711.3 380.1" fill="none" stroke="#1baf7a" stroke-width="1"/>
<text x="715.3" y="384.1" font-size="12" fill="#0b0b0b">Intel Xeon 8488C (Sapphire Rapids)</text>
<path d="M689.3 385.5L700.3 396.1L711.3 396.1" fill="none" stroke="#eda100" stroke-width="1"/>
<text x="715.3" y="400.1" font-size="12" fill="#0b0b0b">Intel Xeon 8375C (Ice Lake)</text>
<path d="M689.3 387.2L700.3 412.1L711.3 412.1" fill="none" stroke="#4a3aa7" stroke-width="1"/>
<text x="715.3" y="416.1" font-size="12" fill="#0b0b0b">AWS Graviton2</text>
</svg>
